<?xml version="1.0" encoding="iso-8859-1"?>
<!-- Generator: Adobe Illustrator 21.1.0, SVG Export Plug-In . SVG Version: 6.00 Build 0)  -->
<svg version="1.1" id="Layer_1" xmlns="http://www.w3.org/2000/svg" xmlns:xlink="http://www.w3.org/1999/xlink" x="0px" y="0px"
	 viewBox="0 0 2409.45 744" style="enable-background:new 0 0 2409.45 744;" xml:space="preserve">
<g>
	<path style="fill:#F3842D;" d="M201.766,461.4V294.48h85.428c12.346,0,21.415,2.973,27.203,8.913
		c5.788,5.943,8.682,15.319,8.682,28.128v93.068c0,11.575-3.01,20.604-9.029,27.086c-6.02,6.482-14.509,9.724-25.466,9.724H201.766z
		 M237.881,330.596v94.688h36.637c5.068,0,8.411-0.883,10.024-2.655c1.613-1.769,2.42-5.657,2.42-11.662v-67.898v-4.851
		c0-2.308-1.154-4.156-3.458-5.542c-2.304-1.386-5.299-2.08-8.985-2.08H237.881z"/>
	<path style="fill:#F3842D;" d="M340.901,304.204c0-5.708,1.928-10.57,5.788-14.585c3.856-4.012,8.566-6.02,14.123-6.02
		c5.556,0,10.223,1.968,14.006,5.904c3.78,3.936,5.672,8.761,5.672,14.469c0,5.404-1.932,9.955-5.788,13.659
		c-3.86,3.704-8.49,5.556-13.891,5.556c-5.557,0-10.266-1.852-14.123-5.556C342.83,313.927,340.901,309.453,340.901,304.204z
		 M345.068,461.4V336.152h31.486V461.4H345.068z"/>
	<path style="fill:#F3842D;" d="M398.776,336.152h72c10.187,0,18.058,2.546,23.614,7.64c5.557,5.093,8.334,12.426,8.334,21.994
		v66.444c0,8.334-2.702,15.28-8.103,20.836c-5.404,5.556-12.27,8.334-20.604,8.334h-43.524c-10.187,0-18.137-2.474-23.846-7.426
		c-5.712-4.952-8.566-11.919-8.566-20.897v-25.535c0-9.441,2.699-16.792,8.103-22.055c5.401-5.26,12.964-7.893,22.688-7.893h42.367
		v-2.948c0-5.596-2.858-8.396-8.566-8.396h-63.897V336.152z M430.03,423.36c0,2.029,0.771,3.744,2.315,5.147
		c1.541,1.403,3.473,2.102,5.788,2.102h24.54c5.708,0,8.566-2.417,8.566-7.249v-8.884c0-4.985-2.934-7.481-8.797-7.481h-24.309
		c-3.241,0-5.405,0.546-6.482,1.639c-1.082,1.093-1.621,3.35-1.621,6.779V423.36z"/>
	<path style="fill:#F3842D;" d="M524.484,461.4V289.387h31.949V461.4H524.484z"/>
	<path style="fill:#3F4D96;" d="M636.765,330.596V294.48h107.884v36.116h-36.116V461.4h-36.116V330.596H636.765z"/>
	<path style="fill:#3F4D96;" d="M841.188,461.4h-69.609c-6.652,0-11.641-0.539-14.965-1.621c-3.328-1.078-6.768-3.162-10.328-6.251
		c-3.404-3.393-5.723-6.75-6.959-10.07c-1.237-3.317-1.856-8.219-1.856-14.701v-63.203c0-9.105,2.764-16.282,8.298-21.53
		c5.531-5.246,13.138-7.872,22.818-7.872h42.638c9.524,0,16.9,2.663,22.124,7.987c5.223,5.325,7.839,12.773,7.839,22.341v25.003
		l-72.231,27.318v2.083c0,2.315,0.622,4.363,1.87,6.135c1.244,1.776,2.728,2.663,4.442,2.663h3.972h61.947V461.4z M768.957,377.521
		l-0.073,12.849l40.106-14.675c0-1.686-0.774-3.14-2.315-4.366c-1.541-1.223-3.317-1.838-5.321-1.838h-22.214
		c-2.778,0-5.173,0.767-7.177,2.297C769.958,373.317,768.957,375.227,768.957,377.521z"/>
	<path style="fill:#3F4D96;" d="M946.062,461.4h-51.164c-22.225,0-33.338-10.726-33.338-32.18v-63.434
		c0-9.568,2.315-16.9,6.945-21.994c4.63-5.093,11.188-7.64,19.679-7.64h57.646v31.949H903h-5.093
		c-0.926,0.155-1.892,0.81-2.894,1.968c-1.006,1.157-1.505,2.199-1.505,3.125v3.936v43.755c0,2.471,0.771,4.555,2.315,6.251
		c1.541,1.7,3.704,2.547,6.482,2.547h43.755V461.4z"/>
	<path style="fill:#3F4D96;" d="M964.118,461.4V289.387h31.949v46.765h43.061c8.334,0,15.28,2.702,20.836,8.103
		c5.556,5.404,8.334,12.27,8.334,20.604v96.54h-31.717v-83.807v-3.704c0-1.233-0.387-2.467-1.157-3.704
		c-1.389-1.389-3.704-2.083-6.945-2.083h-23.383c-6.019,0-9.029,1.932-9.029,5.788v3.936V461.4H964.118z"/>
	<path style="fill:#3F4D96;" d="M1089.828,461.4v-95.151c0-9.568,2.623-16.977,7.872-22.225c5.245-5.246,12.653-7.872,22.225-7.872
		h43.755c9.568,0,16.977,2.626,22.225,7.872c5.245,5.249,7.872,12.657,7.872,22.225V461.4h-31.717v-84.501
		c0-5.864-3.396-8.797-10.187-8.797h-19.91c-6.793,0-10.187,2.934-10.187,8.797V461.4H1089.828z"/>
	<path style="fill:#3F4D96;" d="M1247.254,461.4c-6.019,0-10.382-0.383-13.08-1.158c-2.702-0.771-5.596-2.467-8.682-5.093
		c-6.793-5.708-10.187-12.964-10.187-21.762v-68.991c0-4.011,0.926-7.987,2.778-11.922c1.852-3.936,4.243-7.177,7.177-9.724
		c2.93-2.547,5.903-4.283,8.913-5.209c3.01-0.926,7.369-1.389,13.08-1.389h42.599c5.245,0,9.452,0.463,12.617,1.389
		c3.161,0.926,6.211,2.546,9.145,4.862c6.482,5.711,9.724,13.044,9.724,21.993v68.991c0,8.49-3.241,15.743-9.724,21.762
		c-2.626,2.315-5.556,3.936-8.797,4.862c-3.241,0.926-7.564,1.389-12.965,1.389H1247.254z M1247.254,421.117
		c0,5.711,3.317,8.566,9.955,8.566h22.457c6.482,0,9.724-2.93,9.724-8.798v-44.218c0-5.708-3.241-8.566-9.724-8.566h-22.457
		c-6.638,0-9.955,2.857-9.955,8.566V421.117z"/>
	<path style="fill:#3F4D96;" d="M1342.634,461.4V289.387h31.948V461.4H1342.634z"/>
	<path style="fill:#3F4D96;" d="M1427.828,461.4c-6.019,0-10.382-0.383-13.08-1.158c-2.702-0.771-5.596-2.467-8.682-5.093
		c-6.793-5.708-10.187-12.964-10.187-21.762v-68.991c0-4.011,0.926-7.987,2.778-11.922c1.852-3.936,4.243-7.177,7.177-9.724
		c2.93-2.547,5.903-4.283,8.913-5.209c3.01-0.926,7.369-1.389,13.08-1.389h42.599c5.245,0,9.452,0.463,12.617,1.389
		c3.161,0.926,6.211,2.546,9.145,4.862c6.482,5.711,9.724,13.044,9.724,21.993v68.991c0,8.49-3.241,15.743-9.724,21.762
		c-2.626,2.315-5.556,3.936-8.797,4.862c-3.241,0.926-7.564,1.389-12.965,1.389H1427.828z M1427.828,421.117
		c0,5.711,3.317,8.566,9.955,8.566h22.457c6.482,0,9.724-2.93,9.724-8.798v-44.218c0-5.708-3.241-8.566-9.724-8.566h-22.457
		c-6.638,0-9.955,2.857-9.955,8.566V421.117z"/>
	<path style="fill:#3F4D96;" d="M1523.209,508.396V476.68h64.592c6.327,0,9.492-3.292,9.492-9.872V461.4h-41.209
		c-9.416,0-17.096-2.623-23.036-7.872c-5.942-5.245-8.913-12.114-8.913-20.604v-62.276c0-12.346,2.432-21.183,7.293-26.508
		s13.08-7.987,24.656-7.987h42.366c12.653,0,21.299,2.938,25.93,8.808c3.241,4.638,4.861,11.75,4.861,21.328v109.885
		c0,9.427-3.01,17.153-9.029,23.184c-6.019,6.023-13.814,9.04-23.382,9.04H1523.209z M1555.621,421.349
		c0,2.163,0.846,4.091,2.546,5.788c1.697,1.7,3.78,2.547,6.251,2.547h24.771c5.401,0,8.104-2.778,8.104-8.334v-43.756
		c0-6.327-2.702-9.492-8.104-9.492h-25.234c-2.315,0-4.283,0.774-5.903,2.315c-1.621,1.544-2.431,3.473-2.431,5.788V421.349z"/>
	<path style="fill:#3F4D96;" d="M1646.833,304.204c0-5.708,1.928-10.57,5.788-14.585c3.855-4.012,8.565-6.02,14.122-6.02
		c5.556,0,10.223,1.968,14.006,5.904c3.78,3.936,5.673,8.761,5.673,14.469c0,5.404-1.932,9.955-5.788,13.659
		c-3.859,3.704-8.49,5.556-13.891,5.556c-5.557,0-10.267-1.852-14.122-5.556C1648.761,313.927,1646.833,309.453,1646.833,304.204z
		 M1651,461.4V336.152h31.485V461.4H1651z"/>
	<path style="fill:#3F4D96;" d="M1807.73,461.4h-69.608c-6.652,0-11.641-0.539-14.965-1.621c-3.328-1.078-6.769-3.162-10.328-6.251
		c-3.403-3.393-5.723-6.75-6.96-10.07c-1.236-3.317-1.855-8.219-1.855-14.701v-63.203c0-9.105,2.764-16.282,8.298-21.53
		c5.531-5.246,13.139-7.872,22.818-7.872h42.639c9.524,0,16.9,2.663,22.123,7.987c5.224,5.325,7.839,12.773,7.839,22.341v25.003
		l-72.231,27.318v2.083c0,2.315,0.622,4.363,1.87,6.135c1.245,1.776,2.728,2.663,4.442,2.663h3.972h61.947V461.4z M1735.499,377.521
		l-0.072,12.849l40.105-14.675c0-1.686-0.773-3.14-2.314-4.366c-1.541-1.223-3.317-1.838-5.321-1.838h-22.214
		c-2.778,0-5.173,0.767-7.178,2.297C1736.501,373.317,1735.499,375.227,1735.499,377.521z"/>
	<path style="fill:#3F4D96;" d="M1826.714,461.4v-31.717h54.694c5.054,0,7.582-2.004,7.582-6.02v-2.778l-0.694-2.778
		c-0.927-2.315-2.396-3.473-4.399-3.473h-3.241h-24.077c-8.026,0-15.012-2.663-20.951-7.987c-5.943-5.325-8.913-11.536-8.913-18.637
		v-23.382c0-8.798,2.778-15.743,8.334-20.836c5.557-5.093,13.116-7.64,22.688-7.64h63.896l0.231,31.949h-54.404
		c-6.331,0-9.492,1.932-9.492,5.788v3.01c0,4.015,3.14,6.019,9.423,6.019h26.429c7.202,0,13.562,2.778,19.078,8.334
		c5.513,5.556,8.272,12.039,8.272,19.447v22.92c0,7.564-2.843,14.046-8.522,19.447c-3.227,3.241-6.301,5.44-9.217,6.598
		c-2.919,1.158-6.837,1.736-11.749,1.736H1826.714z"/>
</g>
<g>
	<rect x="201.645" y="494.53" style="fill:#3F4D96;" width="354.687" height="13.851"/>
</g>
<g>
	<rect x="636.748" y="494.53" style="fill:#F3842E;" width="874.351" height="13.851"/>
</g>
<g>
	<path style="fill:#F3842E;" d="M1922.108,508.381H1630.41c0,0,9.894-5.565,9.894-13.851c64.927,0,281.805,0,281.805,0V508.381z"/>
</g>
<g>
	<path style="fill:#F2842D;" d="M2236.512,194.23l-177.439-31.287c-3.236-0.569-6.502,0.153-9.194,2.039s-4.49,4.707-5.061,7.943
		l-65.82,373.28c-1.178,6.683,3.301,13.078,9.982,14.256l177.439,31.287c6.68,1.17,13.077-3.299,14.256-9.982l65.819-373.28
		C2247.672,201.804,2243.193,195.408,2236.512,194.23z"/>
	<path style="fill:#F89C5F;" d="M2236.686,193.246l-177.439-31.287c-3.499-0.618-7.031,0.166-9.942,2.204
		c-2.911,2.038-4.854,5.088-5.471,8.588l-65.82,373.28c-1.273,7.226,3.568,14.141,10.793,15.414l177.439,31.287
		c0.778,0.138,1.553,0.204,2.316,0.204c6.332,0,11.961-4.549,13.098-10.996l65.819-373.28
		C2248.752,201.434,2243.91,194.519,2236.686,193.246z M2246.494,208.486l-65.819,373.28c-1.179,6.683-7.576,11.152-14.256,9.982
		l-177.439-31.287c-6.682-1.178-11.16-7.573-9.982-14.256l65.82-373.28c0.57-3.237,2.368-6.058,5.061-7.943s5.958-2.607,9.194-2.039
		l177.439,31.287C2243.193,195.408,2247.672,201.804,2246.494,208.486z"/>
</g>
<g>
	<path style="fill:#FFFFFF;" d="M2223.915,259.319l-175.267-30.904c-0.032-0.005-0.063-0.008-0.095-0.008
		c-0.261,0-0.492,0.187-0.539,0.452l-46.882,265.88c-0.053,0.297,0.146,0.581,0.443,0.634l175.268,30.904
		c0.144,0.025,0.288-0.006,0.408-0.091c0.119-0.083,0.199-0.208,0.225-0.352l46.882-265.881c0.025-0.144-0.007-0.289-0.091-0.409
		C2224.185,259.424,2224.059,259.344,2223.915,259.319z"/>
	<path style="fill:#F79C5E;" d="M2225.087,258.971c-0.236-0.338-0.591-0.564-0.998-0.636l-175.267-30.904
		c-0.849-0.15-1.645,0.416-1.792,1.254l-46.882,265.88c-0.072,0.407,0.019,0.817,0.256,1.156c0.236,0.338,0.591,0.564,0.998,0.636
		l175.268,30.904c0.091,0.016,0.182,0.024,0.272,0.024c0.314,0,0.621-0.096,0.884-0.281c0.338-0.237,0.563-0.592,0.635-0.998
		l46.882-265.88C2225.415,259.72,2225.324,259.309,2225.087,258.971z M2177.252,526.186c-0.12,0.084-0.265,0.116-0.408,0.091
		l-175.268-30.904c-0.297-0.053-0.496-0.337-0.443-0.634l46.882-265.88c0.047-0.265,0.278-0.452,0.539-0.452
		c0.031,0,0.063,0.003,0.095,0.008l175.267,30.904c0.144,0.025,0.27,0.105,0.353,0.225c0.084,0.12,0.116,0.265,0.091,0.409
		l-46.882,265.881C2177.451,525.977,2177.371,526.102,2177.252,526.186z"/>
</g>
<g>
	<path style="fill:#FFFFFF;" d="M2086.239,527.672c-1.044-0.184-2.084-0.273-3.108-0.273c-8.498,0-16.05,6.104-17.576,14.756
		c-1.709,9.695,4.788,18.974,14.483,20.684c9.701,1.707,18.974-4.789,20.685-14.483
		C2102.432,538.661,2095.935,529.382,2086.239,527.672z"/>
	<path style="fill:#F79C5E;" d="M2086.413,526.688c-10.245-1.811-20.037,5.056-21.843,15.294
		c-1.805,10.239,5.056,20.037,15.294,21.842c1.104,0.195,2.2,0.289,3.283,0.289c8.973,0,16.948-6.447,18.56-15.583
		C2103.512,538.291,2096.651,528.493,2086.413,526.688z M2100.723,548.356c-1.711,9.695-10.983,16.19-20.685,14.483
		c-9.695-1.71-16.192-10.989-14.483-20.684c1.526-8.652,9.078-14.756,17.576-14.756c1.024,0,2.064,0.089,3.108,0.273
		C2095.935,529.382,2102.432,538.661,2100.723,548.356z"/>
</g>
<path style="fill:#F2842D;" d="M2032.27,165.244l-3.939-0.694c2.715-15.395,17.45-25.711,32.841-22.995l-0.695,3.939
	C2047.267,143.163,2034.602,152.022,2032.27,165.244z"/>
<path style="fill:#F2842D;" d="M2012.104,161.688l-4.924-0.868c4.771-27.057,30.665-45.189,57.72-40.416l-0.869,4.924
	C2039.696,121.037,2016.396,137.347,2012.104,161.688z"/>
</svg>
